# xmcd
#
# Track frame offsets:
# 150
# 12965
# 25677
# 42877
# 57707
# 75392
# 93862
# 106760
# 126527
# 140545
# 156842
# 176697
#
# Disc length: 2580 seconds
#
# Revision: 4
# Processed by: cddbd v1.5.2PL0 Copyright (c) Steve Scherf et al.
# Submitted via: Axialis_AX_CDPlayer 2.6
#
DISCID=950a120c
DTITLE=Gary Stewart - I'm A Texan
DYEAR=1993
DGENRE=Country
TTITLE0=Come On In
TTITLE1=I'm A Texan
TTITLE2=Stompin' Grounds
TTITLE3=Hand Me Another
TTITLE4=Draggin' Leather
TTITLE5=It's True
TTITLE6=Honky Tonk Hardwood Floor
TTITLE7=Dark End Of The Street
TTITLE8=Make It A Double
TTITLE9=One Night
TTITLE10=Those Memories
TTITLE11=Two More Fools
EXTD=www.garystewartmusic.com
EXTT0=
EXTT1=
EXTT2=
EXTT3=
EXTT4=
EXTT5=
EXTT6=
EXTT7=
EXTT8=
EXTT9=
EXTT10=
EXTT11=
PLAYORDER=
